<svg width="24" height="24" viewBox="0 0 24 24" fill="none" xmlns="http://www.w3.org/2000/svg">
<path fill-rule="evenodd" clip-rule="evenodd" d="M12.0002 1.4C10.6014 1.39814 9.2491 1.90185 8.19237 2.81834C7.13564 3.73482 6.44572 5.00233 6.24973 6.38733C6.05373 7.77232 6.36487 9.18149 7.12582 10.3552C7.88676 11.5289 9.04625 12.3881 10.3906 12.7744C8.48023 13.0064 6.84183 13.6816 5.60663 14.8992C4.03543 16.4464 3.24023 18.752 3.24023 21.76C3.24023 21.9616 3.32031 22.1549 3.46283 22.2974C3.60536 22.4399 3.79867 22.52 4.00023 22.52C4.2018 22.52 4.39511 22.4399 4.53764 22.2974C4.68016 22.1549 4.76023 21.9616 4.76023 21.76C4.76023 19.008 5.48503 17.152 6.67383 15.9808C7.86423 14.808 9.64343 14.2 12.0002 14.2C14.357 14.2 16.1362 14.808 17.3282 15.9808C18.5154 17.1536 19.2402 19.008 19.2402 21.76C19.2402 21.9616 19.3203 22.1549 19.4628 22.2974C19.6054 22.4399 19.7987 22.52 20.0002 22.52C20.2018 22.52 20.3951 22.4399 20.5376 22.2974C20.6802 22.1549 20.7602 21.9616 20.7602 21.76C20.7602 18.752 19.965 16.448 18.3922 14.8992C17.1602 13.6832 15.5202 13.0064 13.6098 12.7744C14.9497 12.3837 16.104 11.5232 16.8609 10.3507C17.6179 9.1781 17.9269 7.77199 17.7314 6.39007C17.5358 5.00814 16.8488 3.74299 15.7962 2.82649C14.7436 1.91 13.3959 1.40356 12.0002 1.4ZM7.72023 7.2C7.72023 6.06487 8.17116 4.97624 8.97382 4.17358C9.77647 3.37093 10.8651 2.92 12.0002 2.92C13.1354 2.92 14.224 3.37093 15.0267 4.17358C15.8293 4.97624 16.2802 6.06487 16.2802 7.2C16.2802 8.33513 15.8293 9.42376 15.0267 10.2264C14.224 11.0291 13.1354 11.48 12.0002 11.48C10.8651 11.48 9.77647 11.0291 8.97382 10.2264C8.17116 9.42376 7.72023 8.33513 7.72023 7.2Z" fill="black" fill-opacity="0.7"/>
</svg>
